HIERARCHY
ROOT Hips
{
  OFFSET 0.0502701 92.146 0
  CHANNELS 6 Xposition Yposition Zposition Zrotation Xrotation Yrotation
  JOINT Bip01_Pelvis
  {
    OFFSET 0 0 0
    CHANNELS 6 Xposition Yposition Zposition Zrotation Xrotation Yrotation
    JOINT BN_Tai_01
    {
      OFFSET -4.6544 -2.06234 0
      CHANNELS 6 Xposition Yposition Zposition Zrotation Xrotation Yrotation
      JOINT BN_Tai_R_01
      {
        OFFSET 10.2279 -0.119812 3.68897
        CHANNELS 6 Xposition Yposition Zposition Zrotation Xrotation Yrotation
        JOINT BN_Tai_R_02
        {
          OFFSET 15.0421 0 1.52588e-005
          CHANNELS 6 Xposition Yposition Zposition Zrotation Xrotation Yrotation
          End Site
          {
            OFFSET 0 0 0
          }
        }
      }
      JOINT BN_Tai_L_01
      {
        OFFSET 10.2279 -0.119797 -3.68907
        CHANNELS 6 Xposition Yposition Zposition Zrotation Xrotation Yrotation
        JOINT BN_Tai_L_02
        {
          OFFSET 15.0421 0 0
          CHANNELS 6 Xposition Yposition Zposition Zrotation Xrotation Yrotation
          End Site
          {
            OFFSET 0 0 0
          }
        }
      }
    }
    JOINT Bip01_Spine
    {
      OFFSET 2.7319 1.49192 0
      CHANNELS 6 Xposition Yposition Zposition Zrotation Xrotation Yrotation
      JOINT Bip01_R_Thigh
      {
        OFFSET -2.85206 -1.24717 -6.20578
        CHANNELS 6 Xposition Yposition Zposition Zrotation Xrotation Yrotation
        JOINT Bip01_R_Calf
        {
          OFFSET 6.73247 0 0
          CHANNELS 6 Xposition Yposition Zposition Zrotation Xrotation Yrotation
          JOINT Bip01_R_HorseLink
          {
            OFFSET 8.08523 0 0
            CHANNELS 6 Xposition Yposition Zposition Zrotation Xrotation Yrotation
            JOINT Bip01_R_Foot
            {
              OFFSET 8.97518 0 0
              CHANNELS 6 Xposition Yposition Zposition Zrotation Xrotation Yrotation
              JOINT BN_Toe_R_30
              {
                OFFSET 1.58762 -0.234982 -0.295153
                CHANNELS 6 Xposition Yposition Zposition Zrotation Xrotation Yrotation
                JOINT BN_Toe_R_31
                {
                  OFFSET 3.03849 0 0
                  CHANNELS 6 Xposition Yposition Zposition Zrotation Xrotation Yrotation
                  End Site
                  {
                    OFFSET 0 0 0
                  }
                }
              }
              JOINT BN_Toe_R_00
              {
                OFFSET 1.65463 0.933666 1.02414
                CHANNELS 6 Xposition Yposition Zposition Zrotation Xrotation Yrotation
                JOINT BN_Toe_R_01
                {
                  OFFSET 3.51775 0 0
                  CHANNELS 6 Xposition Yposition Zposition Zrotation Xrotation Yrotation
                  End Site
                  {
                    OFFSET 0 0 0
                  }
                }
              }
              JOINT BN_Toe_R_20
              {
                OFFSET 1.47309 1.0106 -1.16708
                CHANNELS 6 Xposition Yposition Zposition Zrotation Xrotation Yrotation
                JOINT BN_Toe_R_21
                {
                  OFFSET 3.94896 0 0
                  CHANNELS 6 Xposition Yposition Zposition Zrotation Xrotation Yrotation
                  End Site
                  {
                    OFFSET 0 0 0
                  }
                }
              }
              JOINT BN_Toe_R_10
              {
                OFFSET 1.07522 1.64225 0.0223596
                CHANNELS 6 Xposition Yposition Zposition Zrotation Xrotation Yrotation
                JOINT BN_Toe_R_11
                {
                  OFFSET 4.09655 0 0
                  CHANNELS 6 Xposition Yposition Zposition Zrotation Xrotation Yrotation
                  End Site
                  {
                    OFFSET 0 0 0
                  }
                }
              }
              JOINT Bip01_R_Toe0
              {
                OFFSET 2.04238 1.88275 0
                CHANNELS 6 Xposition Yposition Zposition Zrotation Xrotation Yrotation
                End Site
                {
                  OFFSET 0 0 0
                }
              }
            }
          }
        }
      }
      JOINT Bip01_L_Thigh
      {
        OFFSET -2.85154 -1.24849 6.20577
        CHANNELS 6 Xposition Yposition Zposition Zrotation Xrotation Yrotation
        JOINT Bip01_L_Calf
        {
          OFFSET 6.73247 0 0
          CHANNELS 6 Xposition Yposition Zposition Zrotation Xrotation Yrotation
          JOINT Bip01_L_HorseLink
          {
            OFFSET 8.08524 0 0
            CHANNELS 6 Xposition Yposition Zposition Zrotation Xrotation Yrotation
            JOINT Bip01_L_Foot
            {
              OFFSET 8.97521 0 0
              CHANNELS 6 Xposition Yposition Zposition Zrotation Xrotation Yrotation
              JOINT BN_Toe_L_00
              {
                OFFSET 1.65461 0.933701 -1.02419
                CHANNELS 6 Xposition Yposition Zposition Zrotation Xrotation Yrotation
                JOINT BN_Toe_L_01
                {
                  OFFSET 3.51778 0 0
                  CHANNELS 6 Xposition Yposition Zposition Zrotation Xrotation Yrotation
                  End Site
                  {
                    OFFSET 0 0 0
                  }
                }
              }
              JOINT BN_Toe_L_10
              {
                OFFSET 1.07523 1.6422 -0.0221281
                CHANNELS 6 Xposition Yposition Zposition Zrotation Xrotation Yrotation
                JOINT BN_Toe_L_11
                {
                  OFFSET 4.09657 0 0
                  CHANNELS 6 Xposition Yposition Zposition Zrotation Xrotation Yrotation
                  End Site
                  {
                    OFFSET 0 0 0
                  }
                }
              }
              JOINT BN_Toe_L_30
              {
                OFFSET 1.58761 -0.234954 0.295135
                CHANNELS 6 Xposition Yposition Zposition Zrotation Xrotation Yrotation
                JOINT BN_Toe_L_31
                {
                  OFFSET 3.03847 0 0
                  CHANNELS 6 Xposition Yposition Zposition Zrotation Xrotation Yrotation
                  End Site
                  {
                    OFFSET 0 0 0
                  }
                }
              }
              JOINT BN_Toe_L_20
              {
                OFFSET 1.4731 1.01055 1.1673
                CHANNELS 6 Xposition Yposition Zposition Zrotation Xrotation Yrotation
                JOINT BN_Toe_L_21
                {
                  OFFSET 3.94897 0 0
                  CHANNELS 6 Xposition Yposition Zposition Zrotation Xrotation Yrotation
                  End Site
                  {
                    OFFSET 0 0 0
                  }
                }
              }
              JOINT Bip01_L_Toe0
              {
                OFFSET 2.04238 1.88276 0
                CHANNELS 6 Xposition Yposition Zposition Zrotation Xrotation Yrotation
                End Site
                {
                  OFFSET 0 0 0
                }
              }
            }
          }
        }
      }
      JOINT Bip01_Spine1
      {
        OFFSET 8.6167 -0.00679016 0
        CHANNELS 6 Xposition Yposition Zposition Zrotation Xrotation Yrotation
        JOINT BN_Wing_R_01
        {
          OFFSET 0.267445 -6.12421 -7.49305
          CHANNELS 6 Xposition Yposition Zposition Zrotation Xrotation Yrotation
          JOINT BN_Wing_R_02
          {
            OFFSET 14.7158 0 0
            CHANNELS 6 Xposition Yposition Zposition Zrotation Xrotation Yrotation
            JOINT BN_Wing_R_03
            {
              OFFSET 19.0858 0 0
              CHANNELS 6 Xposition Yposition Zposition Zrotation Xrotation Yrotation
              JOINT BN_Wing_R_05
              {
                OFFSET 2.68908 -0.270637 0.785261
                CHANNELS 6 Xposition Yposition Zposition Zrotation Xrotation Yrotation
                JOINT BN_Wing_R_06
                {
                  OFFSET 21.1083 0 0
                  CHANNELS 6 Xposition Yposition Zposition Zrotation Xrotation Yrotation
                  End Site
                  {
                    OFFSET 0 0 0
                  }
                }
              }
              JOINT BN_Wing_R_04
              {
                OFFSET 27.642 0 0
                CHANNELS 6 Xposition Yposition Zposition Zrotation Xrotation Yrotation
                End Site
                {
                  OFFSET 0 0 0
                }
              }
            }
          }
        }
        JOINT BN_Wing_L_01
        {
          OFFSET 0.267452 -6.12421 7.49305
          CHANNELS 6 Xposition Yposition Zposition Zrotation Xrotation Yrotation
          JOINT BN_Wing_L_02
          {
            OFFSET 14.7158 0 0
            CHANNELS 6 Xposition Yposition Zposition Zrotation Xrotation Yrotation
            JOINT BN_Wing_L_03
            {
              OFFSET 19.0858 0 0
              CHANNELS 6 Xposition Yposition Zposition Zrotation Xrotation Yrotation
              JOINT BN_Wing_L_05
              {
                OFFSET 2.68908 -0.270635 -0.785254
                CHANNELS 6 Xposition Yposition Zposition Zrotation Xrotation Yrotation
                JOINT BN_Wing_L_06
                {
                  OFFSET 21.1083 0 0
                  CHANNELS 6 Xposition Yposition Zposition Zrotation Xrotation Yrotation
                  End Site
                  {
                    OFFSET 0 0 0
                  }
                }
              }
              JOINT BN_Wing_L_04
              {
                OFFSET 27.642 0 1.14441e-005
                CHANNELS 6 Xposition Yposition Zposition Zrotation Xrotation Yrotation
                End Site
                {
                  OFFSET 0 0 0
                }
              }
            }
          }
        }
        JOINT Bip01_Neck
        {
          OFFSET 7.59958 -1.43237 0
          CHANNELS 6 Xposition Yposition Zposition Zrotation Xrotation Yrotation
          JOINT Bip01_Neck1
          {
            OFFSET 3.64749 -0.00262451 0
            CHANNELS 6 Xposition Yposition Zposition Zrotation Xrotation Yrotation
            JOINT Bip01_Neck2
            {
              OFFSET 3.32331 -0.00284576 0
              CHANNELS 6 Xposition Yposition Zposition Zrotation Xrotation Yrotation
              JOINT Bip01_Head
              {
                OFFSET 4.63256 -0.573471 0
                CHANNELS 6 Xposition Yposition Zposition Zrotation Xrotation Yrotation
                JOINT BN_Jaw
                {
                  OFFSET 1.05386 2.23561 0
                  CHANNELS 6 Xposition Yposition Zposition Zrotation Xrotation Yrotation
                  End Site
                  {
                    OFFSET 0 0 0
                  }
                }
              }
            }
          }
        }
      }
    }
  }
}
MOTION
Frames:	4
Frame Time:	0.0333333
-55.1251 5.19194 -9.16366 -102.181 -73.0328 -170.43 0 0 0 -72.5516 39.9818 -93.4309 -4.6544 -2.06236 9.3132e-010 33.9783 1.1257 178.302 10.228 -0.119785 3.68891 52.6713 76.9676 -35.8485 15.0421 0 6.21725e-015 10.8703 -8.82589 17.7359 10.2279 -0.119778 -3.68914 -166.4 78.0054 -167.329 15.0421 6.21725e-015 3.8147e-006 -2.48483 4.1093 16.3761 2.30724 2.08132 -0.172888 14.6683 -15.0749 -16.3419 -4.39275 0.189568 -5.17019 -99.7489 -1.5578 -168.566 6.73246 -3.8147e-006 0 -61.3474 3.78953e-006 9.46647e-006 8.08522 3.8147e-006 -5.72205e-006 71.2746 0.00109579 0.000374921 8.97519 -3.8147e-006 -1.90735e-006 -20.9751 19.3507 -20.4706 1.58763 -0.23497 -0.295149 -166.674 -9.43185 166.582 3.03848 -1.49214e-013 -3.8147e-006 -45.9883 -7.5456e-006 7.76427e-006 1.65461 0.933685 1.02414 45.2167 43.6197 -15.8366 3.51774 3.8147e-006 3.55271e-015 -4.54284 -2.71218 5.31723 1.4731 1.01062 -1.16707 42.8829 -20.9093 14.3644 3.94896 -4.583e-013 -2.27374e-013 5.20273 -0.000258427 -0.00295592 1.07522 1.64225 0.0223622 34.7347 -5.43787 -3.12315 4.09656 -7.6294e-006 1.19209e-007 19.9667 9.99057e-006 -3.11145e-006 2.04238 1.88276 -8.13443e-009 33.4012 -16.268 25.5658 -1.0205 -3.03879 6.3299 -155.036 -17.9007 -179.121 6.73247 1.06581e-014 -9.53674e-007 -86.7429 -4.67648e-007 8.36453e-007 8.08524 1.42109e-014 9.53674e-007 107.11 1.67556e-006 1.60911e-005 8.97521 -2.54019e-013 1.90735e-006 -24.7729 -2.15962 -23.3033 1.65462 0.933708 -1.02418 54.2743 -39.821 22.7784 3.51776 0 1.42109e-014 24.5069 4.29101 4.36584 1.07522 1.64219 -0.0221235 50.6484 -4.94635 5.40784 4.09657 0 -2.86102e-006 -2.7178 -0.000343246 0.00743845 1.58763 -0.234947 0.295138 -171.221 5.80899 177.236 3.03846 3.8147e-006 9.53674e-007 -33.6133 0.0018774 -0.00280693 1.47311 1.01056 1.1673 65.365 5.68918 -10.1818 3.94897 -3.81469e-006 1.90735e-006 16.4153 -0.000595958 -0.00203423 2.04239 1.88277 9.65334e-008 15.7286 9.60678 -14.7092 8.61718 -0.0068512 2.54065e-006 3.73175 4.16939 3.34068 0.267456 -6.12425 -7.49305 -82.2281 4.94314 88.2698 14.7158 7.62939e-006 -7.10543e-014 51.325 3.62544 -2.67938 19.0859 1.79412e-013 -8.88179e-016 -41.3741 5.54446 38.5089 2.68911 -0.270637 0.785301 -59.6879 8.20727 26.8723 21.1082 -5.68434e-014 -3.19744e-014 -1.43289 -2.41293 27.1736 27.642 -1.52588e-005 -7.62939e-006 -2.65892 -0.0631191 17.2219 0.267456 -6.12426 7.49305 -84.1755 -6.1063 -100.115 14.7158 7.62939e-006 -7.62939e-006 51.327 -3.73004 2.63768 19.0858 9.53674e-007 3.8147e-006 -42.096 -5.8281 -41.407 2.68912 -0.270622 -0.785301 -59.6879 -8.20731 -26.8723 21.1083 7.62938e-006 -1.14441e-005 -1.43289 2.41293 -27.1737 27.642 -7.62939e-006 -3.94351e-013 -2.65892 0.0631167 -17.222 7.59942 -1.43241 -1.52402e-005 14.6871 1.9228 0.0171466 3.64919 -0.00226212 2.54065e-006 25.5681 -4.36241 -0.272626 3.32334 -0.00289917 -3.38218e-012 2.69276 -4.30025 -1.75309 4.63257 -0.573456 -5.5532e-009 -8.22277 -33.6933 21.5513 1.05387 2.23561 2.38619e-007 -92.8872 -0.0260467 -179.976 
-55.1701 5.07665 -9.163 -102.427 -73.1727 -170.456 0 0 0 -73.4838 39.9503 -93.792 -4.6544 -2.06236 9.3132e-010 31.4538 1.18993 178.336 10.228 -0.119785 3.68891 52.0417 77.0095 -33.8239 15.0421 7.10543e-015 5.32907e-015 9.37945 -8.62732 8.73541 10.2279 -0.119778 -3.68914 -165.053 77.8701 -167.459 15.0421 3.55272e-015 3.8147e-006 -3.27632 4.71145 7.09416 2.30766 2.08184 -0.18557 13.8734 -13.9364 -15.829 -4.32629 0.0271245 -5.21414 -100.898 -1.43259 -169.014 6.73246 -3.8147e-006 -3.55271e-015 -60.6379 -3.98866e-006 1.38606e-005 8.08522 3.8147e-006 -5.72205e-006 69.6726 0.000342772 0.000130491 8.97519 -3.8147e-006 -1.90735e-006 -22.0968 19.8116 -17.9277 1.58763 -0.23497 -0.295149 -167.181 -9.33701 166.137 3.03848 -1.27898e-013 -3.8147e-006 -45.9883 -7.75105e-006 7.75221e-006 1.65461 0.933685 1.02414 44.9225 43.7211 -15.9417 3.51774 3.8147e-006 -7.10543e-015 -4.69249 -2.94289 5.76064 1.4731 1.01062 -1.16707 42.4423 -21.0912 14.5029 3.94896 -4.51195e-013 -2.23821e-013 4.75902 -0.000194745 -0.00246779 1.07522 1.64225 0.0223622 34.7621 -5.43831 -3.11905 4.09656 -7.6294e-006 1.19209e-007 19.5701 9.94638e-006 -3.40521e-006 2.04238 1.88276 -3.44956e-009 33.4012 -16.2681 25.5659 -1.04028 -2.96233 6.37515 -151.324 -18.6622 -176.315 6.73247 1.42109e-014 -9.53674e-007 -85.4014 -1.02552e-005 1.65268e-006 8.08524 7.10543e-015 9.53674e-007 108.59 9.98219e-006 1.3151e-005 8.97521 -2.89546e-013 1.90735e-006 -22.8597 -3.34904 -23.7748 1.65462 0.933708 -1.02418 54.0913 -39.9053 22.7592 3.51776 7.10542e-015 1.42109e-014 24.7851 4.66405 4.75085 1.07522 1.64219 -0.0221235 50.6515 -4.94658 5.40768 4.09657 4.54747e-013 -2.86102e-006 -3.57808 -0.000431256 0.00705354 1.58763 -0.234947 0.295138 -171.565 5.82285 177.277 3.03846 3.8147e-006 9.53674e-007 -33.8108 0.00179612 -0.00266402 1.47311 1.01056 1.1673 65.9313 5.5813 -10.2098 3.94897 -3.81469e-006 1.90735e-006 15.9539 -0.000542326 -0.00190772 2.04239 1.88277 1.05057e-007 15.7286 9.60674 -14.7091 8.61718 -0.0068512 2.54065e-006 5.60425 4.04162 3.23646 0.267456 -6.12425 -7.49305 -80.6741 4.98945 88.501 14.7158 7.62939e-006 -4.9738e-014 51.3325 3.79274 -2.8187 19.0859 1.98064e-013 0 -42.6228 5.2878 46.9354 2.68911 -0.270637 0.785301 -60.7344 8.78978 31.2587 21.1082 -2.84217e-014 -1.06581e-014 -1.3282 -2.35109 31.8938 27.642 -1.52588e-005 -7.62939e-006 -2.65376 -0.0591021 22.0444 0.267456 -6.12426 7.49305 -82.6076 -6.19589 -100.879 14.7158 7.62939e-006 -7.62939e-006 51.3383 -3.91597 2.83565 19.0858 9.53674e-007 3.8147e-006 -43.1301 -5.39568 -48.8487 2.68912 -0.270622 -0.785301 -60.7344 -8.7898 -31.2587 21.1083 7.62938e-006 -1.14441e-005 -1.3282 2.35107 -31.8939 27.642 -7.62939e-006 -2.55795e-013 -2.65376 0.0591022 -22.0444 7.59942 -1.43241 -1.52402e-005 15.7065 2.11589 -0.44459 3.64919 -0.00226212 2.54065e-006 25.6687 -4.89496 -0.119472 3.32334 -0.00289917 -4.89564e-012 4.14946 -4.01113 -1.37035 4.63257 -0.573456 -6.03009e-009 -10.1027 -29.4708 21.5086 1.05387 2.23561 2.04676e-007 -91.7853 0.0298613 -179.973 
-55.2095 4.96503 -9.163 -102.667 -73.2997 -170.493 0 0 0 -74.8056 39.8597 -93.9409 -4.6544 -2.06236 9.31323e-010 28.7943 1.25602 178.374 10.228 -0.119785 3.68891 51.0833 77.1005 -30.6553 15.0421 -7.10543e-015 8.88178e-015 7.76753 -7.77252 -2.64006 10.2279 -0.119778 -3.68914 -163.088 77.7437 -167.599 15.0421 2.66454e-015 3.8147e-006 -4.5617 5.45288 -4.91037 2.30976 2.07792 -0.18941 13.2084 -12.5755 -15.1158 -4.24645 -0.148103 -5.27291 -102.784 -1.15485 -169.562 6.73246 -3.8147e-006 7.10543e-015 -61.3456 -4.15955e-006 1.38103e-005 8.08522 3.8147e-006 -5.72205e-006 68.8366 -1.59324e-007 3.46758e-006 8.97519 -3.8147e-006 -1.90735e-006 -23.6235 20.4632 -14.5103 1.58763 -0.23497 -0.295149 -167.671 -9.24125 165.708 3.03848 -1.49214e-013 -3.8147e-006 -45.9883 -8.07292e-006 7.69867e-006 1.65461 0.933685 1.02414 44.7091 43.7995 -16.1251 3.51774 3.8147e-006 0 -4.83647 -3.16857 6.19185 1.4731 1.01062 -1.16707 42.0134 -21.2691 14.6365 3.94896 -4.47642e-013 3.55271e-015 4.32705 -0.000139045 -0.00197885 1.07522 1.64225 0.0223622 34.7889 -5.43876 -3.11509 4.09656 -7.6294e-006 1.19209e-007 19.184 1.00407e-005 -3.38266e-006 2.04238 1.88276 1.21046e-009 33.4012 -16.268 25.5658 -1.08716 -2.85105 6.42149 -146.512 -19.1929 -172.809 6.73247 1.42109e-014 -9.53674e-007 -83.4293 -1.1763e-006 9.99337e-007 8.08524 -2.13163e-014 9.53674e-007 110.11 9.51492e-006 1.28952e-005 8.97521 -3.25073e-013 1.90735e-006 -21.2315 -4.36243 -24.0237 1.65462 0.933708 -1.02418 53.8654 -40.0035 22.7383 3.51776 -7.10542e-015 1.06581e-014 25.0537 5.02898 5.12415 1.07522 1.64219 -0.0221235 50.6533 -4.94801 5.40652 4.09657 4.54747e-013 -2.86102e-006 -4.41563 -0.000506126 0.00668023 1.58763 -0.234947 0.295138 -171.98 5.82847 177.327 3.03846 3.8147e-006 9.53674e-007 -34.0032 0.00171379 -0.00252179 1.47311 1.01056 1.1673 66.4812 5.47604 -10.236 3.94897 -3.81469e-006 1.90735e-006 15.5048 -0.000491144 -0.0017804 2.04239 1.88277 1.17792e-007 15.7286 9.60674 -14.709 8.61718 -0.0068512 2.54065e-006 8.27763 3.88722 3.10939 0.267456 -6.12425 -7.49305 -80.1597 5.16183 88.6882 14.7158 7.62939e-006 -3.90798e-014 51.3424 3.97676 -2.97097 19.0859 1.78524e-013 0 -43.5061 5.20253 51.5728 2.68911 -0.270637 0.785301 -61.1321 8.96829 32.7876 21.1082 -1.42108e-014 -3.19744e-014 -1.32477 -2.34712 35.0589 27.642 -1.52588e-005 -7.62939e-006 -2.65017 -0.0570774 25.6712 0.267456 -6.12426 7.49305 -82.0941 -6.35506 -101.064 14.7158 7.62939e-006 -7.62939e-006 51.3534 -4.1103 3.09115 19.0858 9.53674e-007 3.8147e-006 -43.473 -5.19392 -51.4724 2.68912 -0.270622 -0.785301 -61.1321 -8.96826 -32.7884 21.1083 7.62938e-006 -1.14441e-005 -1.32478 2.3471 -35.0589 27.642 -7.62939e-006 -2.06057e-013 -2.65017 0.057076 -25.6712 7.59942 -1.43241 -1.52402e-005 15.9269 2.29876 -0.88741 3.64919 -0.00226212 2.54065e-006 25.5301 -5.45747 0.0665817 3.32334 -0.00289917 -6.54055e-012 5.59577 -3.61525 -0.962882 4.63257 -0.573456 -6.25712e-009 -12.9101 -24.9112 20.1199 1.05387 2.23561 1.63404e-007 -89.4977 0.00337224 -179.974 
-55.2449 4.86389 -9.163 -102.866 -73.4014 -170.506 0 0 0 -76.4895 39.7184 -93.9197 -4.6544 -2.06236 9.31319e-010 26.3925 1.31219 178.408 10.228 -0.119785 3.68891 49.8984 77.1924 -27.0637 15.0421 0 7.10542e-015 6.45318 -6.57434 -13.768 10.2279 -0.119778 -3.68914 -161.131 77.6149 -167.728 15.0421 1.77636e-015 3.8147e-006 -5.9548 5.95666 -16.257 2.31474 2.0724 -0.183949 12.6178 -10.9842 -14.2258 -4.15342 -0.340101 -5.34375 -105.371 -0.763919 -170.164 6.73246 -3.8147e-006 -7.10543e-015 -63.3623 3.5126e-006 9.56464e-006 8.08522 3.8147e-006 -5.72205e-006 68.7088 -8.41102e-007 3.20454e-006 8.97519 -3.8147e-006 -1.90735e-006 -25.552 21.2144 -10.2417 1.58763 -0.23497 -0.295149 -168.168 -9.14014 165.273 3.03848 -2.13163e-013 -3.8147e-006 -45.9883 -8.57564e-006 7.57462e-006 1.65461 0.933685 1.02414 44.4938 43.8785 -16.3126 3.51774 3.8147e-006 -7.10543e-015 -4.98392 -3.39834 6.62653 1.4731 1.01062 -1.16707 41.5776 -21.4517 14.7705 3.94896 -4.583e-013 0 3.88773 -9.05362e-005 -0.00148924 1.07522 1.64225 0.0223622 34.8161 -5.43919 -3.11104 4.09656 -7.6294e-006 1.19209e-007 18.7913 1.01655e-005 -3.3571e-006 2.04238 1.88276 4.87172e-009 33.4012 -16.268 25.5658 -1.15915 -2.7055 6.46662 -140.606 -19.3514 -168.601 6.73247 1.42109e-014 -9.53674e-007 -80.8836 -7.96287e-009 9.25917e-007 8.08524 -7.10543e-015 9.53674e-007 111.697 8.98176e-006 1.26278e-005 8.97521 -3.69482e-013 1.90735e-006 -19.8228 -5.29659 -24.0715 1.65462 0.933708 -1.02418 53.6291 -40.1054 22.7162 3.51776 -3.55271e-015 2.13163e-014 25.3246 5.4019 5.50223 1.07522 1.64219 -0.0221234 50.6552 -4.94939 5.40541 4.09657 4.61852e-013 -2.86102e-006 -5.26741 -0.000570996 0.0062976 1.58763 -0.234947 0.295138 -172.412 5.83282 177.379 3.03846 3.8147e-006 9.53674e-007 -34.1989 0.00163086 -0.00237996 1.47311 1.01056 1.1673 66.9857 5.36982 -10.2594 3.94897 -3.81469e-006 1.90735e-006 15.048 -0.000441759 -0.00165247 2.04239 1.88277 1.36336e-007 15.7286 9.60667 -14.7089 8.61718 -0.0068512 2.54065e-006 11.6312 3.70333 2.96687 0.267456 -6.12425 -7.49305 -81.1321 5.24823 89.1538 14.7158 7.62939e-006 -1.77636e-014 51.359 4.18395 -3.14599 19.0859 1.74971e-013 0 -43.5663 5.35685 53.8243 2.68911 -0.270637 0.785301 -61.1136 9.01948 31.3743 21.1082 -2.84217e-014 -2.84217e-014 -1.41243 -2.42952 36.9524 27.642 -1.52588e-005 -7.62939e-006 -2.64677 -0.0552457 29.2577 0.267456 -6.12426 7.49305 -83.0492 -6.32406 -100.64 14.7158 7.62939e-006 -7.62939e-006 51.3619 -4.33503 3.6318 19.0858 9.53674e-007 3.8147e-006 -42.5295 -4.98419 -51.365 2.68912 -0.270622 -0.785301 -61.1126 -9.01522 -31.4207 21.1083 7.62938e-006 -1.14441e-005 -1.41243 2.42951 -36.9525 27.642 -7.62939e-006 -1.66978e-013 -2.64677 0.0552465 -29.2577 7.59942 -1.43241 -1.52402e-005 15.4784 2.49153 -1.32299 3.64919 -0.00226212 2.54065e-006 25.1906 -6.0416 0.254091 3.32334 -0.00289917 -8.32401e-012 7.04105 -3.17069 -0.554083 4.63257 -0.573456 -6.32403e-009 -16.1476 -20.0503 17.7852 1.05387 2.23561 1.1863e-007 -86.9622 -0.0334929 -179.973 
